# xmcd
# 
# Track frame offsets:
#     150
#     16252
#     36894
#     56200
#     75117
#     93089
#     112566
#     129771
#     148616
#     162570
#     176733
#     197021
#     214945
#     234320
# 
# Disc length: 3301
# 
# Revision: 2
# Processed by: cddbd v1.5.2PL0 Copyright (c) Steve Scherf et al.
# Submitted via: fre:ac v1.0.17
# 
DISCID=aa0ce30e
DTITLE=Pino Daniele - Ricomincio Da 30 - CD1
DYEAR=2008
DGENRE=Blues
TTITLE0=Quando
TTITLE1=Sara Non Piangere
TTITLE2=Amore Senza Fine
TTITLE3=Dubbi Non Ho
TTITLE4=Napule È
TTITLE5=Quanno Chiove
TTITLE6=A Testa In Giù
TTITLE7=I Say I Sto Cca'
TTITLE8=Je So' Pazzo
TTITLE9=Se Mi Vuoi (Special Guest Irene Grandi)
TTITLE10=Anima
TTITLE11=Anna Verrà
TTITLE12=Mareluna
TTITLE13=Saglie Saglie (Special Guest Massimo Troisi)
EXTD=
EXTT0=
EXTT1=
EXTT2=
EXTT3=
EXTT4=
EXTT5=
EXTT6=
EXTT7=
EXTT8=
EXTT9=
EXTT10=
EXTT11=
EXTT12=
EXTT13=
PLAYORDER=
